<?xml version="1.0" encoding="utf-8"?>
<!-- Generator: Adobe Illustrator 19.0.0, SVG Export Plug-In . SVG Version: 6.00 Build 0)  -->
<svg
  version="1.0"
  xmlns="http://www.w3.org/2000/svg"
  xmlns:xlink="http://www.w3.org/1999/xlink"
  x="0px"
  y="0px"
  viewBox="0 0 282.5 97.8"
  enable-background="new 0 0 282.5 97.8"
  xml:space="preserve"
>
  <g id="Warning">
    <linearGradient id="XMLID_563_" gradientUnits="userSpaceOnUse" x1="140.75" y1="8.266" x2="140.75" y2="90.1233">
      <stop offset="0" style="stop-color: #e6b600" />
      <stop offset="1" style="stop-color: #d26600" />
    </linearGradient>
    <path
      id="XMLID_72_"
      fill="url(#XMLID_563_)"
      d="M180.9,50.5c-0.9-3.3-2.6-6.4-5-8.8c2-5.5,1.4-11.7-1.6-16.8
		c-4.6-7.7-13.7-11.6-22.5-9.5c-4.9-5.7-12.5-8.3-19.8-6.7c-7.3,1.6-13.2,7-15.4,14.2c-5.9,1-11,4.6-14,9.7
		c-4.5,7.7-3.4,17.6,2.8,24c-2,5.5-1.4,11.7,1.6,16.8c4.6,7.8,13.7,11.6,22.5,9.5c4.9,5.7,12.5,8.3,19.8,6.8
		c7.3-1.5,13.3-7,15.4-14.1c5.9-1,11-4.6,14-9.7C181.5,61.2,182.3,55.7,180.9,50.5L180.9,50.5z M164.9,70V49.6c0-0.9-0.2-1.6-0.9-2
		l-18.6-10.5l6.7-3.8l15.8,9c3.6,2,6.2,5.4,7.2,9.3c1.1,3.9,0.5,8-1.6,11.5c-1.6,2.8-4.1,5.1-7.1,6.3
		C165.9,69.6,165.4,69.8,164.9,70L164.9,70z M116.5,28.4v20.3c0,0.8,0.2,1.7,0.9,2l18.6,10.5l-6.7,3.8l-15.8-9
		c-3.6-2-6.2-5.4-7.2-9.3c-1.1-3.9-0.5-8,1.5-11.5c1.4-2.4,3.4-4.3,5.8-5.7C114.6,29.1,115.5,28.8,116.5,28.4L116.5,28.4z
		 M153.3,28.5c-0.7-0.4-1.6-0.4-2.3,0l-18.9,10.8v-7.8l16.1-9c7.4-4.2,16.8-1.7,21.2,5.6c1.5,2.6,2.2,5.6,2,8.6
		c0,0.6-0.1,1.3-0.2,1.9L153.3,28.5L153.3,28.5z M140.7,39.9l8.6,4.9v9l-8.6,4.8l-8.6-4.9v-9L140.7,39.9L140.7,39.9z M128.7,28.1
		c-0.7,0.4-1,1.3-1,2V51l-6.8-3.7V29.8c0-0.1,0-0.2,0-0.4c0.1-6,3.6-11.4,9-13.9c4.9-2.3,10.6-1.8,15,1.1c0.6,0.4,1.2,0.9,1.8,1.3
		L128.7,28.1L128.7,28.1z M110.3,59.7l17.8,10.1c0.7,0.4,1.6,0.4,2.3,0l18.9-10.8v7.8l-16.1,8.9c-7.4,4.2-16.8,1.7-21.2-5.6
		c-1.7-2.9-2.4-6.2-1.9-9.5C110.2,60.4,110.3,60.1,110.3,59.7L110.3,59.7z M152.8,70.3c0.7-0.4,1-1.2,1-2V47.3l6.8,3.7v17.5
		c0,0.1,0,0.2,0,0.4c-0.1,6-3.6,11.4-9,13.9c-5,2.3-10.8,1.8-15.3-1.3c-0.5-0.3-1-0.8-1.5-1.2L152.8,70.3L152.8,70.3z"
    />
    <g id="XMLID_199_">
      <g id="XMLID_125_">
        <defs>
          <path
            id="XMLID_126_"
            d="M243.8,21.5l2.6-8.2l2.6,8.2H243.8L243.8,21.5z M244.9,11.1l-5.8,16.2h2.9l1.1-3.5h6.7v0l1.1,3.4h2.9
					L248,11.1H244.9L244.9,11.1z"
          />
        </defs>
        <clipPath id="XMLID_564_">
          <use xlink:href="#XMLID_126_" overflow="visible" />
        </clipPath>
        <linearGradient
          id="XMLID_565_"
          gradientUnits="userSpaceOnUse"
          x1="224.9305"
          y1="11.0588"
          x2="224.9305"
          y2="48.6816"
        >
          <stop offset="0" style="stop-color: #e6b600" />
          <stop offset="1" style="stop-color: #d26600" />
        </linearGradient>
        <rect
          id="XMLID_129_"
          x="183.7"
          y="11.1"
          clip-path="url(#XMLID_564_)"
          fill="url(#XMLID_565_)"
          width="82.4"
          height="37.6"
        />
      </g>
      <g id="XMLID_120_">
        <defs>
          <path
            id="XMLID_121_"
            d="M208.5,22.1c0,1.9-1.1,3.1-2.9,3.1c-1.7,0-2.9-1.3-2.9-3.1v-1.8c0-1.8,1.2-3.1,2.9-3.1
					c1.8,0,2.9,1.2,2.9,3.1L208.5,22.1L208.5,22.1z M206.3,15c-1.4-0.1-2.7,0.6-3.5,1.7l-0.3,0.5v-1.9h-2.7v16h2.9v-5.8L203,26
					c0.8,1,2.1,1.6,3.4,1.5c2.5,0,5-1.6,5-5.2v-2C211.3,17.7,209.8,15,206.3,15L206.3,15L206.3,15z"
          />
        </defs>
        <clipPath id="XMLID_566_">
          <use xlink:href="#XMLID_121_" overflow="visible" />
        </clipPath>
        <linearGradient
          id="XMLID_567_"
          gradientUnits="userSpaceOnUse"
          x1="224.9305"
          y1="11.0588"
          x2="224.9305"
          y2="48.6816"
        >
          <stop offset="0" style="stop-color: #e6b600" />
          <stop offset="1" style="stop-color: #d26600" />
        </linearGradient>
        <rect
          id="XMLID_124_"
          x="183.7"
          y="11.1"
          clip-path="url(#XMLID_566_)"
          fill="url(#XMLID_567_)"
          width="82.4"
          height="37.6"
        />
      </g>
      <g id="XMLID_115_">
        <defs>
          <path
            id="XMLID_116_"
            d="M194.7,22.2c0,1.9-1,3.1-2.8,3.1c-1.8,0-2.8-1.1-2.8-3.1v-1.8c0-1.9,1-3.1,2.8-3.1
					c1.8,0,2.8,1.1,2.8,3.1V22.2L194.7,22.2z M191.9,15c-3.3,0-5.4,2.1-5.4,5.4v1.8c0,3.3,2.1,5.4,5.4,5.4c3.3,0,5.4-2.1,5.4-5.4
					v-1.8C197.3,17.1,195.2,15,191.9,15L191.9,15z"
          />
        </defs>
        <clipPath id="XMLID_568_">
          <use xlink:href="#XMLID_116_" overflow="visible" />
        </clipPath>
        <linearGradient
          id="XMLID_569_"
          gradientUnits="userSpaceOnUse"
          x1="224.9305"
          y1="11.0588"
          x2="224.9305"
          y2="48.6816"
        >
          <stop offset="0" style="stop-color: #e6b600" />
          <stop offset="1" style="stop-color: #d26600" />
        </linearGradient>
        <rect
          id="XMLID_119_"
          x="183.7"
          y="11.1"
          clip-path="url(#XMLID_568_)"
          fill="url(#XMLID_569_)"
          width="82.4"
          height="37.6"
        />
      </g>
      <g id="XMLID_112_">
        <defs>
          <polygon
            id="XMLID_113_"
            points="265.5,13.3 265.5,11.1 255.5,11.1 255.5,13.3 259,13.3 259,25 255.5,25 255.5,27.3 265.5,27.3 
					265.5,25 262,25 262,13.3 265.5,13.3 				"
          />
        </defs>
        <clipPath id="XMLID_570_">
          <use xlink:href="#XMLID_113_" overflow="visible" />
        </clipPath>
        <linearGradient
          id="XMLID_571_"
          gradientUnits="userSpaceOnUse"
          x1="224.9305"
          y1="11.0588"
          x2="224.9305"
          y2="48.6816"
        >
          <stop offset="0" style="stop-color: #e6b600" />
          <stop offset="1" style="stop-color: #d26600" />
        </linearGradient>
        <rect
          id="XMLID_114_"
          x="183.7"
          y="11.1"
          clip-path="url(#XMLID_570_)"
          fill="url(#XMLID_571_)"
          width="82.4"
          height="37.6"
        />
      </g>
      <g id="XMLID_107_">
        <defs>
          <path
            id="XMLID_108_"
            d="M221.5,20.3h-5.4V20c0-2,1-3,2.7-3c1.8,0,2.7,1.1,2.7,2.9V20.3L221.5,20.3z M218.8,15
					c-3.4,0-5.5,2.1-5.5,5.5v1.7c0,3.3,2.1,5.3,5.5,5.3c2.3,0,3.9-0.8,4.9-2.5l-1.8-1c-0.7,1-1.9,1.6-3.1,1.6
					c-1.7,0-2.8-1.1-2.8-2.9v-0.5h8v-2C224.1,17.1,222,15,218.8,15L218.8,15z"
          />
        </defs>
        <clipPath id="XMLID_572_">
          <use xlink:href="#XMLID_108_" overflow="visible" />
        </clipPath>
        <linearGradient
          id="XMLID_573_"
          gradientUnits="userSpaceOnUse"
          x1="224.9305"
          y1="11.0588"
          x2="224.9305"
          y2="48.6816"
        >
          <stop offset="0" style="stop-color: #e6b600" />
          <stop offset="1" style="stop-color: #d26600" />
        </linearGradient>
        <rect
          id="XMLID_111_"
          x="183.7"
          y="11.1"
          clip-path="url(#XMLID_572_)"
          fill="url(#XMLID_573_)"
          width="82.4"
          height="37.6"
        />
      </g>
      <g id="XMLID_81_">
        <defs>
          <path
            id="XMLID_82_"
            d="M232.8,15c-1.7,0-2.9,0.6-3.5,1.7l-0.3,0.6v-2h-2.7v11.9h2.9v-7.1c0-1.7,0.9-2.7,2.5-2.7
					c1.6,0,2.4,0.9,2.4,2.6v7.2h2.9v-7.7C236.9,16.7,235.4,15,232.8,15L232.8,15z"
          />
        </defs>
        <clipPath id="XMLID_574_">
          <use xlink:href="#XMLID_82_" overflow="visible" />
        </clipPath>
        <linearGradient
          id="XMLID_575_"
          gradientUnits="userSpaceOnUse"
          x1="224.9305"
          y1="11.0588"
          x2="224.9305"
          y2="48.6816"
        >
          <stop offset="0" style="stop-color: #e6b600" />
          <stop offset="1" style="stop-color: #d26600" />
        </linearGradient>
        <rect
          id="XMLID_83_"
          x="183.7"
          y="11.1"
          clip-path="url(#XMLID_574_)"
          fill="url(#XMLID_575_)"
          width="82.4"
          height="37.6"
        />
      </g>
      <g id="XMLID_67_">
        <defs>
          <path id="XMLID_68_" d="M187.9,29.2h2.5v2.6h-2.5V29.2z M188,34h2.4v9.8H188V34z" />
        </defs>
        <clipPath id="XMLID_576_">
          <use xlink:href="#XMLID_68_" overflow="visible" />
        </clipPath>
        <linearGradient
          id="XMLID_577_"
          gradientUnits="userSpaceOnUse"
          x1="224.9305"
          y1="11.0588"
          x2="224.9305"
          y2="48.6816"
        >
          <stop offset="0" style="stop-color: #e6b600" />
          <stop offset="1" style="stop-color: #d26600" />
        </linearGradient>
        <rect
          id="XMLID_71_"
          x="183.7"
          y="11.1"
          clip-path="url(#XMLID_576_)"
          fill="url(#XMLID_577_)"
          width="82.4"
          height="37.6"
        />
      </g>
      <g id="XMLID_63_">
        <defs>
          <path
            id="XMLID_64_"
            d="M205.6,37.8c0-0.2,0-0.4,0-0.6c0-0.2,0-0.3-0.1-0.5c-0.1-0.3-0.2-0.5-0.4-0.7c-0.2-0.2-0.5-0.3-0.9-0.3
					c-0.2,0-0.4,0-0.6,0.1c-0.2,0.1-0.4,0.1-0.7,0.3c-0.2,0.1-0.4,0.2-0.6,0.4c-0.2,0.2-0.4,0.3-0.5,0.5v6.7h-2.4v-5.9
					c0-0.2,0-0.4,0-0.6c0-0.2,0-0.3-0.1-0.5c-0.1-0.3-0.2-0.5-0.4-0.7c-0.2-0.2-0.5-0.3-0.9-0.3c-0.2,0-0.4,0-0.6,0.1
					c-0.2,0.1-0.4,0.1-0.7,0.3c-0.2,0.1-0.4,0.2-0.6,0.4c-0.2,0.2-0.4,0.3-0.5,0.5v6.7H193V34h2l0.2,1.4h0c0.1-0.2,0.3-0.4,0.5-0.6
					c0.2-0.2,0.5-0.4,0.7-0.5c0.3-0.1,0.6-0.3,0.9-0.4c0.3-0.1,0.7-0.1,1-0.1c0.6,0,1.2,0.1,1.7,0.4c0.5,0.3,0.9,0.7,1.2,1.3h0
					c0.2-0.3,0.4-0.5,0.6-0.7c0.2-0.2,0.5-0.4,0.8-0.6c0.3-0.2,0.6-0.3,0.9-0.4c0.3-0.1,0.7-0.1,1-0.1c0.7,0,1.3,0.2,1.8,0.4
					c0.5,0.3,0.8,0.7,1.1,1.2c0.1,0.1,0.1,0.3,0.2,0.4s0.1,0.3,0.1,0.5c0,0.2,0.1,0.4,0.1,0.6c0,0.2,0,0.5,0,0.8v6.1h-2.4V37.8z"
          />
        </defs>
        <clipPath id="XMLID_578_">
          <use xlink:href="#XMLID_64_" overflow="visible" />
        </clipPath>
        <linearGradient
          id="XMLID_579_"
          gradientUnits="userSpaceOnUse"
          x1="224.9305"
          y1="11.0588"
          x2="224.9305"
          y2="48.6816"
        >
          <stop offset="0" style="stop-color: #e6b600" />
          <stop offset="1" style="stop-color: #d26600" />
        </linearGradient>
        <rect
          id="XMLID_66_"
          x="183.7"
          y="11.1"
          clip-path="url(#XMLID_578_)"
          fill="url(#XMLID_579_)"
          width="82.4"
          height="37.6"
        />
      </g>
      <g id="XMLID_58_">
        <defs>
          <path
            id="XMLID_59_"
            d="M216.3,42.7L216.3,42.7c-0.2,0.1-0.3,0.3-0.5,0.4c-0.2,0.1-0.4,0.3-0.6,0.4c-0.2,0.1-0.5,0.2-0.8,0.3
					c-0.3,0.1-0.6,0.1-1,0.1c-0.5,0-0.9-0.1-1.3-0.2c-0.4-0.1-0.7-0.4-1-0.6c-0.3-0.3-0.5-0.6-0.7-1c-0.2-0.4-0.2-0.8-0.2-1.3
					c0-0.5,0.1-1,0.3-1.4c0.2-0.4,0.5-0.8,0.8-1.1c0.3-0.3,0.8-0.5,1.2-0.7c0.5-0.2,1-0.2,1.6-0.2c0.4,0,0.8,0,1.2,0.1
					c0.4,0.1,0.7,0.1,0.9,0.2v-0.4c0-0.2,0-0.4-0.1-0.7c-0.1-0.2-0.2-0.4-0.4-0.6c-0.2-0.2-0.4-0.3-0.7-0.4c-0.3-0.1-0.6-0.1-1-0.1
					c-0.5,0-1,0.1-1.5,0.2c-0.5,0.1-1,0.3-1.6,0.5v-1.9c0.5-0.2,1-0.4,1.6-0.5c0.6-0.1,1.1-0.2,1.7-0.2c0.7,0,1.3,0.1,1.9,0.3
					c0.5,0.2,1,0.4,1.3,0.7c0.4,0.3,0.6,0.7,0.8,1.1c0.2,0.4,0.3,0.9,0.3,1.4v3.7c0,0.6,0,1.2,0,1.7c0,0.5,0,0.9,0,1.2h-2.2
					L216.3,42.7z M216.2,39.6c-0.2-0.1-0.5-0.1-0.8-0.1c-0.3,0-0.6-0.1-0.9-0.1c-0.6,0-1,0.1-1.4,0.3c-0.3,0.2-0.5,0.6-0.5,1.1
					c0,0.2,0,0.4,0.1,0.6c0.1,0.2,0.2,0.3,0.3,0.4c0.1,0.1,0.3,0.2,0.5,0.2c0.2,0.1,0.4,0.1,0.6,0.1c0.2,0,0.5,0,0.7-0.1
					c0.2-0.1,0.4-0.1,0.6-0.2c0.2-0.1,0.3-0.2,0.5-0.3c0.1-0.1,0.3-0.2,0.4-0.4V39.6z"
          />
        </defs>
        <clipPath id="XMLID_580_">
          <use xlink:href="#XMLID_59_" overflow="visible" />
        </clipPath>
        <linearGradient
          id="XMLID_581_"
          gradientUnits="userSpaceOnUse"
          x1="224.9305"
          y1="11.0588"
          x2="224.9305"
          y2="48.6816"
        >
          <stop offset="0" style="stop-color: #e6b600" />
          <stop offset="1" style="stop-color: #d26600" />
        </linearGradient>
        <rect
          id="XMLID_62_"
          x="183.7"
          y="11.1"
          clip-path="url(#XMLID_580_)"
          fill="url(#XMLID_581_)"
          width="82.4"
          height="37.6"
        />
      </g>
      <g id="XMLID_53_">
        <defs>
          <path
            id="XMLID_54_"
            d="M227.6,44c0-0.1,0-0.3,0-0.5c0-0.2,0-0.4,0-0.5h0c-0.1,0.1-0.3,0.2-0.5,0.4c-0.2,0.1-0.4,0.2-0.6,0.3
					c-0.2,0.1-0.5,0.2-0.8,0.2c-0.3,0.1-0.6,0.1-0.8,0.1c-0.5,0-1-0.1-1.5-0.3c-0.5-0.2-0.9-0.5-1.3-0.9c-0.4-0.4-0.7-0.9-0.9-1.5
					c-0.2-0.6-0.4-1.4-0.4-2.3c0-0.9,0.1-1.7,0.4-2.3c0.2-0.7,0.6-1.2,1-1.7c0.4-0.4,0.9-0.8,1.4-1c0.5-0.2,1-0.3,1.6-0.3
					c0.6,0,1.1,0.1,1.6,0.4s0.8,0.6,1.1,1h0l0.1-1.1h2.1V44c0,0.6,0,1.1-0.1,1.5c-0.1,0.4-0.2,0.8-0.4,1.1c-0.2,0.4-0.5,0.7-0.8,1
					c-0.3,0.3-0.7,0.5-1.1,0.7c-0.4,0.2-0.9,0.3-1.4,0.4c-0.5,0.1-1.1,0.1-1.6,0.1c-0.3,0-0.6,0-0.9,0c-0.3,0-0.6-0.1-0.9-0.1
					c-0.3,0-0.5-0.1-0.7-0.2c-0.2-0.1-0.4-0.1-0.6-0.2v-1.9c0.4,0.1,0.9,0.3,1.4,0.3c0.5,0.1,1,0.1,1.5,0.1c1.1,0,1.9-0.2,2.5-0.6
					c0.6-0.4,0.9-1,0.9-1.9V44z M225.4,42.1c0.2,0,0.5,0,0.7-0.1c0.2-0.1,0.4-0.1,0.6-0.2s0.3-0.2,0.5-0.3c0.1-0.1,0.3-0.2,0.4-0.3
					v-4.4c-0.3-0.3-0.6-0.6-0.9-0.8c-0.4-0.2-0.8-0.3-1.2-0.3c-0.1,0-0.3,0-0.5,0.1c-0.2,0-0.3,0.1-0.5,0.2
					c-0.2,0.1-0.3,0.2-0.5,0.4c-0.2,0.2-0.3,0.4-0.4,0.6s-0.2,0.5-0.3,0.9c-0.1,0.3-0.1,0.7-0.1,1.2c0,0.5,0,0.9,0.1,1.3
					c0.1,0.4,0.2,0.7,0.4,1c0.2,0.3,0.4,0.5,0.7,0.6C224.7,42.1,225.1,42.1,225.4,42.1z"
          />
        </defs>
        <clipPath id="XMLID_582_">
          <use xlink:href="#XMLID_54_" overflow="visible" />
        </clipPath>
        <linearGradient
          id="XMLID_583_"
          gradientUnits="userSpaceOnUse"
          x1="224.9305"
          y1="11.0588"
          x2="224.9305"
          y2="48.6816"
        >
          <stop offset="0" style="stop-color: #e6b600" />
          <stop offset="1" style="stop-color: #d26600" />
        </linearGradient>
        <rect
          id="XMLID_57_"
          x="183.7"
          y="11.1"
          clip-path="url(#XMLID_582_)"
          fill="url(#XMLID_583_)"
          width="82.4"
          height="37.6"
        />
      </g>
      <g id="XMLID_48_">
        <defs>
          <path
            id="XMLID_49_"
            d="M237.6,42.1c0.5,0,0.9,0,1.5-0.1c0.5-0.1,1-0.2,1.5-0.4v1.9c-0.3,0.1-0.8,0.3-1.4,0.4
					c-0.6,0.1-1.3,0.2-2,0.2c-0.7,0-1.3-0.1-2-0.3s-1.2-0.5-1.6-0.9c-0.5-0.4-0.8-0.9-1.1-1.5c-0.3-0.6-0.4-1.4-0.4-2.3
					c0-0.9,0.1-1.7,0.4-2.3c0.3-0.7,0.6-1.2,1-1.7c0.4-0.4,0.9-0.8,1.5-1c0.6-0.2,1.1-0.3,1.7-0.3c0.6,0,1.2,0.1,1.7,0.3
					c0.5,0.2,1,0.5,1.4,0.9c0.4,0.4,0.7,0.9,0.9,1.6c0.2,0.6,0.3,1.4,0.3,2.3c0,0.3,0,0.6,0,0.9h-6.4c0,0.5,0.1,0.8,0.3,1.2
					c0.2,0.3,0.4,0.6,0.7,0.8c0.3,0.2,0.6,0.3,1,0.4C236.8,42.1,237.2,42.1,237.6,42.1z M236.6,35.6c-0.3,0-0.6,0.1-0.8,0.2
					c-0.2,0.1-0.4,0.3-0.6,0.5c-0.2,0.2-0.3,0.4-0.4,0.7c-0.1,0.3-0.2,0.5-0.2,0.8h3.8c0-0.3,0-0.6-0.1-0.8
					c-0.1-0.3-0.2-0.5-0.3-0.7c-0.2-0.2-0.3-0.3-0.6-0.5C237.2,35.7,236.9,35.6,236.6,35.6z"
          />
        </defs>
        <clipPath id="XMLID_584_">
          <use xlink:href="#XMLID_49_" overflow="visible" />
        </clipPath>
        <linearGradient
          id="XMLID_585_"
          gradientUnits="userSpaceOnUse"
          x1="224.9305"
          y1="11.0588"
          x2="224.9305"
          y2="48.6816"
        >
          <stop offset="0" style="stop-color: #e6b600" />
          <stop offset="1" style="stop-color: #d26600" />
        </linearGradient>
        <rect
          id="XMLID_52_"
          x="183.7"
          y="11.1"
          clip-path="url(#XMLID_584_)"
          fill="url(#XMLID_585_)"
          width="82.4"
          height="37.6"
        />
      </g>
      <g id="XMLID_44_">
        <defs>
          <path
            id="XMLID_45_"
            d="M247.5,40.9c0-0.2-0.1-0.4-0.2-0.5c-0.1-0.1-0.3-0.2-0.5-0.3c-0.2-0.1-0.4-0.2-0.7-0.2
					c-0.3-0.1-0.5-0.1-0.8-0.2c-0.3-0.1-0.7-0.2-1-0.3s-0.6-0.3-0.9-0.5c-0.2-0.2-0.4-0.5-0.6-0.8c-0.1-0.3-0.2-0.7-0.2-1.1
					c0-0.5,0.1-1,0.3-1.4c0.2-0.4,0.5-0.7,0.8-1c0.3-0.3,0.7-0.5,1.2-0.6c0.4-0.1,0.9-0.2,1.4-0.2c0.6,0,1.2,0,1.7,0.1
					c0.5,0.1,1,0.2,1.4,0.4v1.9c-0.2-0.1-0.5-0.1-0.7-0.2c-0.2-0.1-0.5-0.1-0.7-0.2c-0.3,0-0.5-0.1-0.8-0.1c-0.2,0-0.5,0-0.7,0
					c-0.3,0-0.5,0-0.7,0.1c-0.2,0.1-0.4,0.1-0.5,0.2c-0.1,0.1-0.2,0.2-0.3,0.3c-0.1,0.1-0.1,0.2-0.1,0.4c0,0.2,0.1,0.4,0.2,0.5
					c0.1,0.1,0.3,0.3,0.5,0.3c0.2,0.1,0.4,0.2,0.7,0.2c0.2,0.1,0.5,0.1,0.7,0.2c0.3,0.1,0.7,0.2,1,0.3c0.3,0.1,0.6,0.3,0.9,0.5
					c0.3,0.2,0.5,0.5,0.7,0.8c0.2,0.3,0.3,0.7,0.3,1.2c0,0.6-0.1,1-0.3,1.4c-0.2,0.4-0.5,0.8-0.9,1c-0.4,0.3-0.8,0.5-1.3,0.6
					c-0.5,0.1-1.1,0.2-1.7,0.2c-0.6,0-1.2,0-1.7-0.1c-0.5-0.1-0.9-0.2-1.2-0.4v-1.9c0.5,0.2,1,0.3,1.5,0.4c0.4,0.1,0.9,0.1,1.2,0.1
					c0.3,0,0.6,0,0.8-0.1c0.3,0,0.5-0.1,0.7-0.2c0.2-0.1,0.3-0.2,0.4-0.4C247.4,41.3,247.5,41.1,247.5,40.9z"
          />
        </defs>
        <clipPath id="XMLID_586_">
          <use xlink:href="#XMLID_45_" overflow="visible" />
        </clipPath>
        <linearGradient
          id="XMLID_587_"
          gradientUnits="userSpaceOnUse"
          x1="224.9305"
          y1="11.0588"
          x2="224.9305"
          y2="48.6816"
        >
          <stop offset="0" style="stop-color: #e6b600" />
          <stop offset="1" style="stop-color: #d26600" />
        </linearGradient>
        <rect
          id="XMLID_47_"
          x="183.7"
          y="11.1"
          clip-path="url(#XMLID_586_)"
          fill="url(#XMLID_587_)"
          width="82.4"
          height="37.6"
        />
      </g>
    </g>
  </g>
</svg>
