<?xml version="1.0" encoding="utf-8"?>
<!-- Generator: Adobe Illustrator 19.0.0, SVG Export Plug-In . SVG Version: 6.00 Build 0)  -->
<svg version="1.0" id="Layer_1" xmlns="http://www.w3.org/2000/svg" xmlns:xlink="http://www.w3.org/1999/xlink" x="0px" y="0px"
	 viewBox="0 0 282.5 96.5" enable-background="new 0 0 282.5 96.5" xml:space="preserve">
<g id="XMLID_106_">
	<g id="XMLID_98_">
		<defs>
			<path id="XMLID_15_" d="M225.7,30.8l5.7-17.8l5.6,17.8H225.7L225.7,30.8z M228,8.1l-12.7,35.3h6.3l2.4-7.6h14.5v0.1l2.4,7.5h6.4
				L234.8,8.1H228L228,8.1z"/>
		</defs>
		<clipPath id="XMLID_118_">
			<use xlink:href="#XMLID_15_"  overflow="visible"/>
		</clipPath>
		<linearGradient id="XMLID_119_" gradientUnits="userSpaceOnUse" x1="184.5" y1="8.0928" x2="184.5" y2="90.1233">
			<stop  offset="0" style="stop-color:#6785C1"/>
			<stop  offset="1" style="stop-color:#0F1C50"/>
		</linearGradient>
		<rect id="XMLID_89_" x="94.7" y="8.1" clip-path="url(#XMLID_118_)" fill="url(#XMLID_119_)" width="179.7" height="82"/>
	</g>
	<g id="XMLID_26_">
		<defs>
			<path id="XMLID_12_" d="M148.6,32.3c0,4.2-2.5,6.8-6.4,6.8c-3.7,0-6.2-2.8-6.2-6.7v-3.9c0-4,2.6-6.8,6.3-6.8
				c3.9,0,6.3,2.6,6.3,6.8L148.6,32.3L148.6,32.3z M144,16.7c-3-0.1-5.9,1.2-7.6,3.6l-0.7,1v-4.1h-6v35h6.3V39.7l0.7,1
				c1.8,2.3,4.5,3.5,7.4,3.3c5.4,0,10.9-3.5,10.9-11.4v-4.4C154.9,22.5,151.5,16.7,144,16.7L144,16.7L144,16.7z"/>
		</defs>
		<clipPath id="XMLID_120_">
			<use xlink:href="#XMLID_12_"  overflow="visible"/>
		</clipPath>
		<linearGradient id="XMLID_121_" gradientUnits="userSpaceOnUse" x1="184.5" y1="8.0928" x2="184.5" y2="90.1233">
			<stop  offset="0" style="stop-color:#6785C1"/>
			<stop  offset="1" style="stop-color:#0F1C50"/>
		</linearGradient>
		<rect id="XMLID_94_" x="94.7" y="8.1" clip-path="url(#XMLID_120_)" fill="url(#XMLID_121_)" width="179.7" height="82"/>
	</g>
	<g id="XMLID_1_">
		<defs>
			<path id="XMLID_9_" d="M118.7,32.4c0,4.2-2.2,6.7-6.1,6.7c-3.9,0-6.1-2.4-6.1-6.7v-3.9c0-4.2,2.2-6.7,6.1-6.7
				c3.9,0,6.1,2.4,6.1,6.7V32.4L118.7,32.4z M112.6,16.7c-7.2,0-11.7,4.5-11.7,11.7v3.9c0,7.2,4.5,11.7,11.7,11.7
				c7.2,0,11.7-4.5,11.7-11.7v-3.9C124.3,21.2,119.8,16.7,112.6,16.7L112.6,16.7z"/>
		</defs>
		<clipPath id="XMLID_122_">
			<use xlink:href="#XMLID_9_"  overflow="visible"/>
		</clipPath>
		<linearGradient id="XMLID_123_" gradientUnits="userSpaceOnUse" x1="184.5" y1="8.0928" x2="184.5" y2="90.1233">
			<stop  offset="0" style="stop-color:#6785C1"/>
			<stop  offset="1" style="stop-color:#0F1C50"/>
		</linearGradient>
		<rect id="XMLID_93_" x="94.7" y="8.1" clip-path="url(#XMLID_122_)" fill="url(#XMLID_123_)" width="179.7" height="82"/>
	</g>
	<g id="XMLID_99_">
		<defs>
			<polygon id="XMLID_8_" points="272.9,13.1 272.9,8.1 251.2,8.1 251.2,13.1 258.8,13.1 258.8,38.4 251.2,38.4 251.2,43.4 
				272.9,43.4 272.9,38.4 265.3,38.4 265.3,13.1 272.9,13.1 			"/>
		</defs>
		<clipPath id="XMLID_124_">
			<use xlink:href="#XMLID_8_"  overflow="visible"/>
		</clipPath>
		<linearGradient id="XMLID_125_" gradientUnits="userSpaceOnUse" x1="184.5" y1="8.0928" x2="184.5" y2="90.1233">
			<stop  offset="0" style="stop-color:#6785C1"/>
			<stop  offset="1" style="stop-color:#0F1C50"/>
		</linearGradient>
		<rect id="XMLID_90_" x="94.7" y="8.1" clip-path="url(#XMLID_124_)" fill="url(#XMLID_125_)" width="179.7" height="82"/>
	</g>
	<g id="XMLID_84_">
		<defs>
			<path id="XMLID_5_" d="M177.1,28.2h-11.8v-0.6c0-4.3,2.1-6.6,5.9-6.6c3.8,0,5.9,2.3,5.9,6.2V28.2L177.1,28.2z M171.2,16.7
				c-7.4,0-12,4.6-12,12v3.6c0,7.1,4.6,11.6,12.1,11.6c5,0,8.5-1.8,10.7-5.5l-3.9-2.2c-1.6,2.2-4.1,3.5-6.8,3.5c-3.8,0-6-2.3-6-6.2
				v-1h17.5v-4.4C182.8,21.2,178.2,16.7,171.2,16.7L171.2,16.7z"/>
		</defs>
		<clipPath id="XMLID_126_">
			<use xlink:href="#XMLID_5_"  overflow="visible"/>
		</clipPath>
		<linearGradient id="XMLID_127_" gradientUnits="userSpaceOnUse" x1="184.5" y1="8.0928" x2="184.5" y2="90.1233">
			<stop  offset="0" style="stop-color:#6785C1"/>
			<stop  offset="1" style="stop-color:#0F1C50"/>
		</linearGradient>
		<rect id="XMLID_95_" x="94.7" y="8.1" clip-path="url(#XMLID_126_)" fill="url(#XMLID_127_)" width="179.7" height="82"/>
	</g>
	<g id="XMLID_97_">
		<defs>
			<path id="XMLID_4_" d="M201.6,16.7c-3.7,0-6.3,1.2-7.5,3.6l-0.7,1.3v-4.3h-6v26h6.3V27.9c0-3.7,2-5.8,5.5-5.8
				c3.5,0,5.3,2.1,5.3,5.7v15.7h6.3V26.6C210.7,20.4,207.3,16.7,201.6,16.7L201.6,16.7z"/>
		</defs>
		<clipPath id="XMLID_128_">
			<use xlink:href="#XMLID_4_"  overflow="visible"/>
		</clipPath>
		<linearGradient id="XMLID_129_" gradientUnits="userSpaceOnUse" x1="184.5" y1="8.0928" x2="184.5" y2="90.1233">
			<stop  offset="0" style="stop-color:#6785C1"/>
			<stop  offset="1" style="stop-color:#0F1C50"/>
		</linearGradient>
		<rect id="XMLID_96_" x="94.7" y="8.1" clip-path="url(#XMLID_128_)" fill="url(#XMLID_129_)" width="179.7" height="82"/>
	</g>
	<linearGradient id="XMLID_130_" gradientUnits="userSpaceOnUse" x1="50.2424" y1="8.266" x2="50.2424" y2="90.1233">
		<stop  offset="0" style="stop-color:#6785C1"/>
		<stop  offset="1" style="stop-color:#0F1C50"/>
	</linearGradient>
	<path id="XMLID_2_" fill="url(#XMLID_130_)" d="M90.4,50.5c-0.9-3.3-2.6-6.4-5-8.8c2-5.5,1.4-11.7-1.6-16.8
		c-4.6-7.7-13.7-11.6-22.5-9.5c-4.9-5.7-12.5-8.3-19.8-6.7c-7.3,1.6-13.2,7-15.4,14.2c-5.9,1-11,4.6-14,9.7
		c-4.5,7.7-3.4,17.6,2.8,24c-2,5.5-1.4,11.7,1.6,16.8C21.1,81.2,30.3,85,39,82.9c4.9,5.7,12.5,8.3,19.8,6.8
		c7.3-1.5,13.3-7,15.4-14.1c5.9-1,11-4.6,14-9.7C91,61.2,91.8,55.7,90.4,50.5L90.4,50.5z M74.4,70V49.6c0-0.9-0.2-1.6-0.9-2
		L54.9,37.1l6.7-3.8l15.8,9c3.6,2,6.2,5.4,7.2,9.3c1.1,3.9,0.5,8-1.6,11.5c-1.6,2.8-4.1,5.1-7.1,6.3C75.4,69.6,74.9,69.8,74.4,70
		L74.4,70z M26,28.4v20.3c0,0.8,0.2,1.7,0.9,2l18.6,10.5l-6.7,3.8l-15.8-9c-3.6-2-6.2-5.4-7.2-9.3c-1.1-3.9-0.5-8,1.5-11.5
		c1.4-2.4,3.4-4.3,5.8-5.7C24.1,29.1,25,28.8,26,28.4L26,28.4z M62.8,28.5c-0.7-0.4-1.6-0.4-2.3,0L41.6,39.3v-7.8l16.1-9
		c7.4-4.2,16.8-1.7,21.2,5.6c1.5,2.6,2.2,5.6,2,8.6c0,0.6-0.1,1.3-0.2,1.9L62.8,28.5L62.8,28.5z M50.2,39.9l8.6,4.9v9l-8.6,4.8
		l-8.6-4.9v-9L50.2,39.9L50.2,39.9z M38.2,28.1c-0.7,0.4-1,1.3-1,2V51l-6.8-3.7V29.8c0-0.1,0-0.2,0-0.4c0.1-6,3.6-11.4,9-13.9
		c4.9-2.3,10.6-1.8,15,1.1c0.6,0.4,1.2,0.9,1.8,1.3L38.2,28.1L38.2,28.1z M19.8,59.7l17.8,10.1c0.7,0.4,1.6,0.4,2.3,0l18.9-10.8v7.8
		l-16.1,8.9c-7.4,4.2-16.8,1.7-21.2-5.6c-1.7-2.9-2.4-6.2-1.9-9.5C19.7,60.4,19.8,60.1,19.8,59.7L19.8,59.7z M62.3,70.3
		c0.7-0.4,1-1.2,1-2V47.3L70,51v17.5c0,0.1,0,0.2,0,0.4c-0.1,6-3.6,11.4-9,13.9c-5,2.3-10.8,1.8-15.3-1.3c-0.5-0.3-1-0.8-1.5-1.2
		L62.3,70.3L62.3,70.3z"/>
	<g id="XMLID_105_">
		<defs>
			<path id="XMLID_27_" d="M103.7,47.6h5.5v5.6h-5.5V47.6z M103.9,58.1h5.2v21.3h-5.2V58.1z"/>
		</defs>
		<clipPath id="XMLID_131_">
			<use xlink:href="#XMLID_27_"  overflow="visible"/>
		</clipPath>
		<linearGradient id="XMLID_132_" gradientUnits="userSpaceOnUse" x1="184.5" y1="8.0928" x2="184.5" y2="90.1233">
			<stop  offset="0" style="stop-color:#6785C1"/>
			<stop  offset="1" style="stop-color:#0F1C50"/>
		</linearGradient>
		<rect id="XMLID_85_" x="94.7" y="8.1" clip-path="url(#XMLID_131_)" fill="url(#XMLID_132_)" width="179.7" height="82"/>
	</g>
	<g id="XMLID_104_">
		<defs>
			<path id="XMLID_30_" d="M142.3,66.5c0-0.5,0-0.9,0-1.3s-0.1-0.7-0.2-1c-0.2-0.6-0.5-1.2-0.9-1.6s-1.1-0.6-2-0.6
				c-0.5,0-0.9,0.1-1.4,0.2c-0.5,0.1-1,0.3-1.4,0.6c-0.5,0.2-0.9,0.5-1.4,0.9c-0.4,0.3-0.8,0.7-1.2,1.2v14.7h-5.2v-13
				c0-0.5,0-0.9,0-1.3s-0.1-0.7-0.2-1c-0.2-0.6-0.5-1.2-0.9-1.6c-0.5-0.4-1.1-0.6-2-0.6c-0.5,0-0.9,0.1-1.4,0.2s-1,0.3-1.4,0.6
				c-0.5,0.2-0.9,0.5-1.4,0.9c-0.4,0.3-0.8,0.7-1.2,1.2v14.7h-5.2V58.1h4.3l0.5,3h0.1c0.3-0.4,0.7-0.9,1.2-1.3
				c0.5-0.4,1-0.8,1.6-1.1c0.6-0.3,1.2-0.6,2-0.8c0.7-0.2,1.5-0.3,2.3-0.3c1.4,0,2.7,0.3,3.8,0.9c1.1,0.6,2,1.6,2.6,2.9h0.1
				c0.4-0.6,0.9-1.1,1.4-1.6c0.5-0.5,1.1-0.9,1.7-1.2c0.6-0.3,1.3-0.6,2-0.8c0.7-0.2,1.5-0.3,2.3-0.3c1.5,0,2.8,0.3,3.8,1
				c1,0.6,1.8,1.5,2.4,2.6c0.1,0.3,0.3,0.6,0.4,0.9s0.2,0.7,0.3,1.1c0.1,0.4,0.1,0.9,0.1,1.4s0,1.1,0,1.7v13.2h-5.2V66.5z"/>
		</defs>
		<clipPath id="XMLID_133_">
			<use xlink:href="#XMLID_30_"  overflow="visible"/>
		</clipPath>
		<linearGradient id="XMLID_134_" gradientUnits="userSpaceOnUse" x1="184.5" y1="8.0928" x2="184.5" y2="90.1233">
			<stop  offset="0" style="stop-color:#6785C1"/>
			<stop  offset="1" style="stop-color:#0F1C50"/>
		</linearGradient>
		<rect id="XMLID_86_" x="94.7" y="8.1" clip-path="url(#XMLID_133_)" fill="url(#XMLID_134_)" width="179.7" height="82"/>
	</g>
	<g id="XMLID_103_">
		<defs>
			<path id="XMLID_32_" d="M165.8,77.2L165.8,77.2c-0.4,0.3-0.7,0.6-1.1,0.9s-0.9,0.6-1.4,0.9c-0.5,0.3-1.1,0.5-1.8,0.7
				s-1.3,0.3-2.1,0.3c-1,0-2-0.2-2.8-0.5c-0.9-0.3-1.6-0.8-2.3-1.4c-0.6-0.6-1.1-1.3-1.5-2.2c-0.4-0.8-0.5-1.8-0.5-2.8
				c0-1.1,0.2-2.2,0.6-3.1c0.4-0.9,1-1.7,1.7-2.3c0.7-0.6,1.6-1.1,2.7-1.4s2.2-0.5,3.4-0.5c0.9,0,1.8,0.1,2.5,0.2s1.5,0.3,2,0.4
				v-0.9c0-0.5-0.1-1-0.3-1.4c-0.2-0.5-0.4-0.9-0.8-1.2c-0.4-0.4-0.9-0.6-1.5-0.9s-1.3-0.3-2.2-0.3c-1.1,0-2.1,0.1-3.2,0.4
				c-1.1,0.2-2.2,0.6-3.4,1.1v-4.1c1.1-0.5,2.2-0.8,3.4-1.1s2.5-0.4,3.8-0.4c1.6,0,2.9,0.2,4.1,0.6c1.2,0.4,2.1,0.9,2.9,1.6
				c0.8,0.7,1.4,1.5,1.8,2.4c0.4,0.9,0.6,1.9,0.6,3v8c0,1.4,0,2.6,0,3.6c0,1,0.1,1.9,0.1,2.7H166L165.8,77.2z M165.4,70.4
				c-0.5-0.1-1.1-0.2-1.7-0.3s-1.3-0.1-2-0.1c-1.3,0-2.3,0.3-3,0.8c-0.7,0.5-1.1,1.3-1.1,2.3c0,0.5,0.1,0.9,0.3,1.3
				c0.2,0.4,0.4,0.7,0.7,0.9c0.3,0.2,0.6,0.4,1,0.5c0.4,0.1,0.8,0.2,1.2,0.2c0.5,0,1-0.1,1.5-0.2c0.5-0.1,0.9-0.3,1.3-0.5
				c0.4-0.2,0.8-0.5,1.1-0.7c0.3-0.3,0.6-0.5,0.8-0.8V70.4z"/>
		</defs>
		<clipPath id="XMLID_135_">
			<use xlink:href="#XMLID_32_"  overflow="visible"/>
		</clipPath>
		<linearGradient id="XMLID_136_" gradientUnits="userSpaceOnUse" x1="184.5" y1="8.0928" x2="184.5" y2="90.1233">
			<stop  offset="0" style="stop-color:#6785C1"/>
			<stop  offset="1" style="stop-color:#0F1C50"/>
		</linearGradient>
		<rect id="XMLID_88_" x="94.7" y="8.1" clip-path="url(#XMLID_135_)" fill="url(#XMLID_136_)" width="179.7" height="82"/>
	</g>
	<g id="XMLID_102_">
		<defs>
			<path id="XMLID_35_" d="M190.2,80c0-0.3,0-0.7,0-1.1c0-0.4,0-0.8,0.1-1.1h0c-0.3,0.3-0.7,0.5-1.1,0.8c-0.4,0.3-0.9,0.5-1.4,0.7
				c-0.5,0.2-1,0.4-1.6,0.5s-1.2,0.2-1.8,0.2c-1.1,0-2.2-0.2-3.3-0.6c-1.1-0.4-2-1-2.9-1.9c-0.8-0.9-1.5-2-2-3.4
				c-0.5-1.4-0.8-3-0.8-4.9c0-1.9,0.3-3.6,0.8-5c0.5-1.4,1.2-2.6,2.1-3.6s1.9-1.7,3-2.2c1.1-0.5,2.3-0.7,3.5-0.7
				c1.3,0,2.5,0.3,3.5,0.8s1.8,1.2,2.5,2.1h0.1l0.2-2.4h4.6v21.7c0,1.2-0.1,2.3-0.3,3.2c-0.2,0.9-0.5,1.7-0.9,2.4
				c-0.5,0.8-1.1,1.5-1.8,2.1c-0.7,0.6-1.6,1.1-2.5,1.5c-0.9,0.4-2,0.7-3.1,0.9c-1.1,0.2-2.3,0.3-3.5,0.3c-0.7,0-1.4,0-2.1-0.1
				c-0.7-0.1-1.3-0.1-1.9-0.2c-0.6-0.1-1.1-0.2-1.6-0.3c-0.5-0.1-0.9-0.3-1.2-0.4v-4.2c1,0.3,2,0.6,3,0.7c1.1,0.2,2.2,0.3,3.4,0.3
				c2.3,0,4.1-0.5,5.4-1.4c1.3-0.9,1.9-2.3,1.9-4.1V80z M185.6,75.8c0.5,0,1-0.1,1.5-0.2c0.5-0.1,0.9-0.3,1.3-0.5s0.8-0.4,1.1-0.7
				c0.3-0.2,0.6-0.5,0.8-0.7v-9.5c-0.6-0.7-1.2-1.2-2.1-1.6c-0.8-0.4-1.7-0.7-2.6-0.7c-0.3,0-0.7,0-1,0.1c-0.4,0.1-0.7,0.2-1.1,0.4
				s-0.7,0.5-1,0.8c-0.3,0.3-0.6,0.8-0.9,1.3s-0.5,1.2-0.6,1.9c-0.2,0.7-0.2,1.6-0.2,2.5c0,1.1,0.1,2,0.3,2.9
				c0.2,0.8,0.5,1.6,0.9,2.2s0.9,1,1.5,1.4C184.1,75.7,184.8,75.8,185.6,75.8z"/>
		</defs>
		<clipPath id="XMLID_137_">
			<use xlink:href="#XMLID_35_"  overflow="visible"/>
		</clipPath>
		<linearGradient id="XMLID_138_" gradientUnits="userSpaceOnUse" x1="184.5" y1="8.0928" x2="184.5" y2="90.1233">
			<stop  offset="0" style="stop-color:#6785C1"/>
			<stop  offset="1" style="stop-color:#0F1C50"/>
		</linearGradient>
		<rect id="XMLID_87_" x="94.7" y="8.1" clip-path="url(#XMLID_137_)" fill="url(#XMLID_138_)" width="179.7" height="82"/>
	</g>
	<g id="XMLID_101_">
		<defs>
			<path id="XMLID_38_" d="M212.1,75.8c1,0,2.1-0.1,3.2-0.3c1.1-0.2,2.2-0.5,3.3-0.9v4.2c-0.7,0.3-1.7,0.6-3.1,0.8
				c-1.4,0.3-2.8,0.4-4.3,0.4c-1.5,0-2.9-0.2-4.3-0.6s-2.5-1-3.5-1.9s-1.8-2-2.4-3.4c-0.6-1.4-0.9-3-0.9-5c0-1.9,0.3-3.6,0.8-5.1
				s1.3-2.7,2.2-3.6c0.9-1,2-1.7,3.2-2.1c1.2-0.5,2.5-0.7,3.7-0.7c1.3,0,2.6,0.2,3.7,0.6c1.1,0.4,2.1,1.1,2.9,1.9s1.5,2,1.9,3.4
				c0.5,1.4,0.7,3,0.7,4.9c0,0.7,0,1.4-0.1,1.9h-14c0.1,1,0.3,1.8,0.7,2.5c0.4,0.7,0.8,1.3,1.4,1.7c0.6,0.4,1.3,0.7,2.1,0.9
				S211.2,75.8,212.1,75.8z M210,61.7c-0.7,0-1.2,0.1-1.8,0.4s-1,0.6-1.3,1c-0.4,0.4-0.7,0.9-0.9,1.5s-0.4,1.1-0.4,1.8h8.4
				c0-0.6-0.1-1.2-0.3-1.8c-0.2-0.6-0.4-1-0.7-1.5c-0.3-0.4-0.7-0.7-1.2-1C211.3,61.8,210.7,61.7,210,61.7z"/>
		</defs>
		<clipPath id="XMLID_139_">
			<use xlink:href="#XMLID_38_"  overflow="visible"/>
		</clipPath>
		<linearGradient id="XMLID_140_" gradientUnits="userSpaceOnUse" x1="184.5" y1="8.0928" x2="184.5" y2="90.1233">
			<stop  offset="0" style="stop-color:#6785C1"/>
			<stop  offset="1" style="stop-color:#0F1C50"/>
		</linearGradient>
		<rect id="XMLID_92_" x="94.7" y="8.1" clip-path="url(#XMLID_139_)" fill="url(#XMLID_140_)" width="179.7" height="82"/>
	</g>
	<g id="XMLID_100_">
		<defs>
			<path id="XMLID_41_" d="M233.7,73.3c0-0.5-0.1-0.8-0.4-1.1c-0.3-0.3-0.6-0.5-1-0.7s-0.9-0.4-1.5-0.5c-0.5-0.1-1.1-0.3-1.7-0.4
				c-0.8-0.2-1.5-0.4-2.2-0.7s-1.3-0.6-1.9-1.1c-0.5-0.4-1-1-1.3-1.7c-0.3-0.7-0.5-1.5-0.5-2.4c0-1.2,0.2-2.2,0.6-3.1s1-1.6,1.7-2.2
				c0.7-0.6,1.6-1,2.5-1.3c1-0.3,2-0.4,3-0.4c1.3,0,2.5,0.1,3.7,0.3c1.1,0.2,2.2,0.5,3.1,0.8V63c-0.5-0.2-1-0.3-1.5-0.5
				c-0.5-0.1-1.1-0.3-1.6-0.4c-0.5-0.1-1.1-0.2-1.6-0.3s-1.1-0.1-1.5-0.1c-0.6,0-1.1,0.1-1.6,0.2c-0.4,0.1-0.8,0.3-1,0.5
				c-0.3,0.2-0.5,0.4-0.6,0.7c-0.1,0.3-0.2,0.5-0.2,0.8c0,0.5,0.1,0.9,0.4,1.2c0.3,0.3,0.6,0.6,1.1,0.7s0.9,0.3,1.4,0.5
				c0.5,0.1,1,0.2,1.5,0.4c0.7,0.2,1.5,0.4,2.2,0.6c0.7,0.2,1.4,0.6,2,1s1.1,1,1.4,1.7c0.4,0.7,0.6,1.6,0.6,2.7
				c0,1.2-0.2,2.2-0.7,3.1c-0.5,0.9-1.1,1.6-1.9,2.2c-0.8,0.6-1.8,1-2.9,1.3c-1.1,0.3-2.4,0.4-3.7,0.4c-1.3,0-2.6-0.1-3.6-0.3
				s-2-0.5-2.7-0.8v-4.2c1.1,0.4,2.2,0.7,3.2,0.9c1,0.2,1.9,0.2,2.7,0.2c0.6,0,1.2,0,1.8-0.1c0.6-0.1,1-0.2,1.4-0.5
				c0.4-0.2,0.7-0.5,1-0.8C233.5,74.1,233.7,73.7,233.7,73.3z"/>
		</defs>
		<clipPath id="XMLID_141_">
			<use xlink:href="#XMLID_41_"  overflow="visible"/>
		</clipPath>
		<linearGradient id="XMLID_142_" gradientUnits="userSpaceOnUse" x1="184.5" y1="8.0928" x2="184.5" y2="90.1233">
			<stop  offset="0" style="stop-color:#6785C1"/>
			<stop  offset="1" style="stop-color:#0F1C50"/>
		</linearGradient>
		<rect id="XMLID_91_" x="94.7" y="8.1" clip-path="url(#XMLID_141_)" fill="url(#XMLID_142_)" width="179.7" height="82"/>
	</g>
</g>
</svg>
